<svg xmlns="http://www.w3.org/2000/svg" xmlns:xlink="http://www.w3.org/1999/xlink" width="512" height="512" viewBox="0 0 512 512" fill="none"><defs><filter id="noise" opacity="0"><feTurbulence type="fractalNoise" baseFrequency="19.5" numOctaves="10" result="turbulence"></feTurbulence><feComposite operator="in" in="turbulence" in2="SourceAlpha" result="composite"></feComposite><feColorMatrix in="composite" type="luminanceToAlpha"></feColorMatrix><feBlend in="SourceGraphic" in2="composite" mode="color-burn"></feBlend></filter><linearGradient id="linearGradient" gradientUnits="userSpaceOnUse" gradientTransform="rotate(45)" style="transform-origin: center center 0px;"><stop stop-color="#000000"></stop><stop offset="1" stop-color="#0c1118"></stop></linearGradient><radialGradient id="radialGradient" cx="50%" cy="50%" r="100%" fx="50%" fy="0%" gradientUnits="objectBoundingBox"><stop stop-color="#000000"></stop><stop offset="1" stop-color="#0c1118"></stop></radialGradient><radialGradient id="radialGlare" cx="0" cy="0" r="1" gradientUnits="userSpaceOnUse" gradientTransform="translate(256) rotate(90) scale(512)"><stop stop-color="white"></stop><stop offset="1" stop-color="white" stop-opacity="0"></stop></radialGradient><clipPath id="image-clip"><use xlink:href="#image"></use></clipPath></defs><rect id="image" width="512" height="512" rx="32" ry="32" fill="url(#radialGradient)" stroke="#FFFFFF" stroke-width="0" stroke-opacity="100%" paint-order="stroke"></rect><g transform="rotate(0 0 0)" style="transform-origin: 256px 256px;"><svg xmlns="http://www.w3.org/2000/svg" width="400" height="400" viewBox="0 0 24 24" fill="none" stroke="#ffffff" stroke-width="1" stroke-linecap="round" stroke-linejoin="round" class="lucide lucide-shuffle" x="56" y="56"><path d="m18 14 4 4-4 4"></path><path d="m18 2 4 4-4 4"></path><path d="M2 18h1.973a4 4 0 0 0 3.3-1.7l5.454-8.6a4 4 0 0 1 3.3-1.7H22"></path><path d="M2 6h1.972a4 4 0 0 1 3.6 2.2"></path><path d="M22 18h-6.041a4 4 0 0 1-3.3-1.8l-.359-.45"></path></svg></g><image href="data:image/svg+xml,%3csvg%20viewBox='0%200%20400%20400'%20xmlns='http://www.w3.org/2000/svg'%3e%3cfilter%20id='noiseFilter'%3e%3cfeTurbulence%20type='fractalNoise'%20baseFrequency='1.73'%20numOctaves='3'%20stitchTiles='stitch'/%3e%3c/filter%3e%3crect%20width='100%25'%20height='100%25'%20filter='url(%23noiseFilter)'/%3e%3c/svg%3e" width="512" height="512" rx="32" ry="32" opacity="0%" clip-path="url(#image-clip)"></image></svg>

